<svg width="160" height="66" viewBox="0 0 160 66" fill="none" xmlns="http://www.w3.org/2000/svg">
<path d="M98.8592 63.8131L98.8711 63.8244C99.1846 64.1261 99.5547 64.3627 99.96 64.5208C100.365 64.6789 100.798 64.7554 101.233 64.7457C101.599 64.737 101.961 64.6683 102.305 64.5423L121.02 57.7087L156.381 20.6781C158.543 18.4141 159.717 15.3842 159.644 12.2547C159.572 9.12528 158.259 6.15274 155.995 3.99102C153.732 1.82929 150.702 0.655464 147.572 0.727762C144.443 0.80006 141.47 2.11256 139.308 4.37653L103.947 41.4071L97.9839 60.4166C97.7959 61.0078 97.7783 61.64 97.9331 62.2408C98.0879 62.8415 98.4089 63.3865 98.8592 63.8131ZM142.383 7.31274C143.769 5.8733 145.668 5.04139 147.665 4.99917C149.662 4.95696 151.595 5.70788 153.039 7.08751C154.484 8.46713 155.323 10.363 155.373 12.3601C155.423 14.3571 154.679 16.2925 153.305 17.7424L148.655 22.612L137.733 12.1823L142.383 7.31274ZM107.707 43.6255L134.797 15.2571L145.719 25.6868L118.629 54.0551L102.599 59.9084L107.707 43.6255Z" fill="black"/>
<path d="M0.187988 52.328C0.187988 49.832 0.727988 47.612 1.80799 45.668C2.88799 43.7 4.38799 42.176 6.30799 41.096C8.25199 39.992 10.448 39.44 12.896 39.44C15.896 39.44 18.464 40.232 20.6 41.816C22.736 43.4 24.164 45.56 24.884 48.296H18.116C17.612 47.24 16.892 46.436 15.956 45.884C15.044 45.332 14 45.056 12.824 45.056C10.928 45.056 9.39199 45.716 8.21599 47.036C7.03999 48.356 6.45199 50.12 6.45199 52.328C6.45199 54.536 7.03999 56.3 8.21599 57.62C9.39199 58.94 10.928 59.6 12.824 59.6C14 59.6 15.044 59.324 15.956 58.772C16.892 58.22 17.612 57.416 18.116 56.36H24.884C24.164 59.096 22.736 61.256 20.6 62.84C18.464 64.4 15.896 65.18 12.896 65.18C10.448 65.18 8.25199 64.64 6.30799 63.56C4.38799 62.456 2.88799 60.932 1.80799 58.988C0.727988 57.044 0.187988 54.824 0.187988 52.328Z" fill="black"/>
<path d="M37.7979 65.288C35.8299 65.288 34.0539 64.868 32.4699 64.028C30.9099 63.188 29.6739 61.988 28.7619 60.428C27.8739 58.868 27.4299 57.044 27.4299 54.956C27.4299 52.892 27.8859 51.08 28.7979 49.52C29.7099 47.936 30.9579 46.724 32.5419 45.884C34.1259 45.044 35.9019 44.624 37.8699 44.624C39.8379 44.624 41.6139 45.044 43.1979 45.884C44.7819 46.724 46.0299 47.936 46.9419 49.52C47.8539 51.08 48.3099 52.892 48.3099 54.956C48.3099 57.02 47.8419 58.844 46.9059 60.428C45.9939 61.988 44.7339 63.188 43.1259 64.028C41.5419 64.868 39.7659 65.288 37.7979 65.288ZM37.7979 59.96C38.9739 59.96 39.9699 59.528 40.7859 58.664C41.6259 57.8 42.0459 56.564 42.0459 54.956C42.0459 53.348 41.6379 52.112 40.8219 51.248C40.0299 50.384 39.0459 49.952 37.8699 49.952C36.6699 49.952 35.6739 50.384 34.8819 51.248C34.0899 52.088 33.6939 53.324 33.6939 54.956C33.6939 56.564 34.0779 57.8 34.8459 58.664C35.6379 59.528 36.6219 59.96 37.7979 59.96Z" fill="black"/>
<path d="M50.3517 54.92C50.3517 52.856 50.7357 51.044 51.5037 49.484C52.2957 47.924 53.3637 46.724 54.7077 45.884C56.0517 45.044 57.5517 44.624 59.2077 44.624C60.5277 44.624 61.7277 44.9 62.8077 45.452C63.9117 46.004 64.7757 46.748 65.3997 47.684V38.36H71.5557V65H65.3997V62.12C64.8237 63.08 63.9957 63.848 62.9157 64.424C61.8597 65 60.6237 65.288 59.2077 65.288C57.5517 65.288 56.0517 64.868 54.7077 64.028C53.3637 63.164 52.2957 61.952 51.5037 60.392C50.7357 58.808 50.3517 56.984 50.3517 54.92ZM65.3997 54.956C65.3997 53.42 64.9677 52.208 64.1037 51.32C63.2637 50.432 62.2317 49.988 61.0077 49.988C59.7837 49.988 58.7397 50.432 57.8757 51.32C57.0357 52.184 56.6157 53.384 56.6157 54.92C56.6157 56.456 57.0357 57.68 57.8757 58.592C58.7397 59.48 59.7837 59.924 61.0077 59.924C62.2317 59.924 63.2637 59.48 64.1037 58.592C64.9677 57.704 65.3997 56.492 65.3997 54.956Z" fill="black"/>
<path d="M94.9453 54.632C94.9453 55.208 94.9093 55.808 94.8373 56.432H80.9053C81.0013 57.68 81.3973 58.64 82.0933 59.312C82.8133 59.96 83.6893 60.284 84.7213 60.284C86.2573 60.284 87.3253 59.636 87.9253 58.34H94.4773C94.1413 59.66 93.5293 60.848 92.6413 61.904C91.7773 62.96 90.6853 63.788 89.3653 64.388C88.0453 64.988 86.5693 65.288 84.9373 65.288C82.9693 65.288 81.2173 64.868 79.6813 64.028C78.1453 63.188 76.9453 61.988 76.0813 60.428C75.2173 58.868 74.7853 57.044 74.7853 54.956C74.7853 52.868 75.2053 51.044 76.0453 49.484C76.9093 47.924 78.1093 46.724 79.6453 45.884C81.1813 45.044 82.9453 44.624 84.9373 44.624C86.8813 44.624 88.6093 45.032 90.1213 45.848C91.6333 46.664 92.8093 47.828 93.6493 49.34C94.5133 50.852 94.9453 52.616 94.9453 54.632ZM88.6453 53.012C88.6453 51.956 88.2853 51.116 87.5653 50.492C86.8453 49.868 85.9453 49.556 84.8653 49.556C83.8333 49.556 82.9573 49.856 82.2373 50.456C81.5413 51.056 81.1093 51.908 80.9413 53.012H88.6453Z" fill="black"/>
</svg>
